<?xml version="1.0" standalone="no"?>
<!DOCTYPE svg PUBLIC "-//W3C//DTD SVG 20010904//EN"
 "http://www.w3.org/TR/2001/REC-SVG-20010904/DTD/svg10.dtd">
<svg version="1.0" xmlns="http://www.w3.org/2000/svg"
 width="512.000000pt" height="512.000000pt" viewBox="0 0 512.000000 512.000000"
 preserveAspectRatio="xMidYMid meet">

<g transform="translate(0.000000,512.000000) scale(0.100000,-0.100000)"
fill="#000000" stroke="none">
<path d="M146 4985 c-167 -59 -197 -304 -50 -405 62 -43 116 -50 390 -50 229
0 244 -1 254 -19 5 -11 88 -561 185 -1223 96 -661 182 -1234 191 -1273 29
-123 107 -253 201 -334 61 -52 182 -116 264 -138 60 -17 154 -18 1349 -18
1216 0 1288 1 1350 18 213 60 392 232 449 432 30 104 391 1923 391 1968 0 63
-26 121 -71 164 -72 68 83 63 -1943 63 l-1834 0 -5 23 c-3 12 -15 90 -27 172
-39 273 -56 326 -134 432 -68 93 -171 160 -288 188 -87 20 -614 21 -672 0z"/>
<path d="M1752 1309 c-134 -23 -243 -81 -338 -182 -119 -125 -169 -263 -161
-437 6 -129 30 -203 99 -306 151 -225 438 -321 681 -226 188 73 322 223 372
417 19 76 19 214 0 289 -36 138 -139 280 -259 358 -108 70 -277 107 -394 87z"/>
<path d="M3784 1310 c-195 -35 -360 -159 -443 -333 -46 -96 -61 -161 -61 -260
1 -389 368 -674 744 -577 112 28 190 73 276 160 80 80 123 153 156 266 24 83
22 239 -4 321 -62 195 -218 350 -409 406 -67 20 -195 28 -259 17z"/>
</g>
</svg>
