<?xml version="1.0" standalone="no"?>
<!DOCTYPE svg PUBLIC "-//W3C//DTD SVG 20010904//EN"
 "http://www.w3.org/TR/2001/REC-SVG-20010904/DTD/svg10.dtd">
<svg version="1.0" xmlns="http://www.w3.org/2000/svg"
 width="512.000000pt" height="512.000000pt" viewBox="0 0 512.000000 512.000000"
 preserveAspectRatio="xMidYMid meet">

<g transform="translate(0.000000,512.000000) scale(0.100000,-0.100000)"
fill="#000000" stroke="none">
<path d="M2299 5104 c-247 -44 -465 -160 -649 -344 -241 -241 -360 -528 -360
-869 0 -380 136 -682 423 -938 368 -328 922 -397 1372 -170 216 109 420 311
537 532 63 121 94 214 118 353 66 382 -36 752 -286 1032 -197 223 -433 357
-711 405 -106 19 -340 18 -444 -1z"/>
<path d="M1363 2635 c-485 -88 -784 -476 -901 -1170 -34 -198 -45 -358 -40
-576 5 -184 8 -213 32 -292 77 -258 246 -440 498 -537 161 -62 116 -61 1644
-58 l1389 3 80 23 c246 69 432 217 536 426 74 150 91 240 90 491 -1 514 -113
974 -308 1268 -60 90 -181 218 -253 267 -147 100 -315 156 -496 167 -98 6
-104 5 -165 -24 -35 -16 -135 -75 -222 -131 -168 -107 -295 -164 -457 -205
-121 -30 -349 -30 -470 0 -165 42 -285 96 -470 214 -96 62 -196 121 -223 131
-56 21 -156 23 -264 3z"/>
</g>
</svg>
